<svg xmlns="http://www.w3.org/2000/svg" width="24" height="24" viewBox="0 0 24 24">
  <path fill="#585858" d="M12,16 C14.209139,16 16,14.209139 16,12 C16,9.790861 14.209139,8 12,8 C9.790861,8 8,9.790861 8,12 C8,14.209139 9.790861,16 12,16 Z M12,18 C8.6862915,18 6,15.3137085 6,12 C6,8.6862915 8.6862915,6 12,6 C15.3137085,6 18,8.6862915 18,12 C18,15.3137085 15.3137085,18 12,18 Z M4.92893219,3.51471863 L7.05025253,5.63603897 C7.99306157,6.57884801 6.57884801,7.99306157 5.63603897,7.05025253 L3.51471863,4.92893219 C2.57190958,3.98612315 3.98612315,2.57190958 4.92893219,3.51471863 Z M13,1 L13,4 C13,5.33333333 11,5.33333333 11,4 L11,1 C11,-0.333333333 13,-0.333333333 13,1 Z M20.4852814,4.92893219 L18.363961,7.05025253 C17.421152,7.99306157 16.0069384,6.57884801 16.9497475,5.63603897 L19.0710678,3.51471863 C20.0138769,2.57190958 21.4280904,3.98612315 20.4852814,4.92893219 Z M23,13 L20,13 C18.6666667,13 18.6666667,11 20,11 L23,11 C24.3333333,11 24.3333333,13 23,13 Z M19.0710678,20.4852814 L16.9497475,18.363961 C16.0069384,17.421152 17.421152,16.0069384 18.363961,16.9497475 L20.4852814,19.0710678 C21.4280904,20.0138769 20.0138769,21.4280904 19.0710678,20.4852814 Z M11,23 L11,20 C11,18.6666667 13,18.6666667 13,20 L13,23 C13,24.3333333 11,24.3333333 11,23 Z M3.51471863,19.0710678 L5.63603897,16.9497475 C6.57884801,16.0069384 7.99306157,17.421152 7.05025253,18.363961 L4.92893219,20.4852814 C3.98612315,21.4280904 2.57190958,20.0138769 3.51471863,19.0710678 Z M1,11 L4,11 C5.33333333,11 5.33333333,13 4,13 L1,13 C-0.333333333,13 -0.333333333,11 1,11 Z"/>
</svg>
