<svg xmlns="http://www.w3.org/2000/svg" width="24" height="24" viewBox="0 0 24 24">
  <path fill="#585858" d="M10,21 C14.9705627,21 19,16.9705627 19,12 C19,7.02943725 14.9705627,3 10,3 C9.2212141,3 8.45719789,3.0987864 7.72147888,3.29063838 C10.3723598,5.33713823 12,8.5234222 12,12 C12,15.4765778 10.3723598,18.6628618 7.72147888,20.7093616 C8.45719789,20.9012136 9.2212141,21 10,21 Z M5.04939102,20.0399872 C8.06069741,18.5200038 10,15.4335386 10,12 C10,8.56646138 8.06069741,5.47999618 5.04939102,3.96001283 C4.31686966,3.59026624 4.31686966,2.54431657 5.04939102,2.17456998 C6.57199505,1.40602222 8.25799991,1 10,1 C16.0751322,1 21,5.92486775 21,12 C21,18.0751322 16.0751322,23 10,23 C8.25799991,23 6.57199505,22.5939778 5.04939102,21.82543 C4.31686966,21.4556834 4.31686966,20.4097338 5.04939102,20.0399872 Z"/>
</svg>
