<svg xmlns="http://www.w3.org/2000/svg" width="24" height="24" viewBox="0 0 24 24">
  <path fill="#585858" d="M4.48003329,12.140473 C4.17221428,11.4916111 4,10.765917 4,10 C4,7.23857625 6.23857625,5 9,5 C11.0508035,5 12.8132325,6.23467855 13.5845031,8.001252 C13.6290251,8.00041841 13.6736288,8 13.7183099,8 C16.9895492,8 19.7457556,10.2228711 20.5509033,13.2451907 C22.5531228,13.8978344 24,15.7799491 24,18 C24,20.6622937 21.9192605,22.8386046 19.2952894,22.991425 L8,23 C4.6862915,23 2,20.3137085 2,17 C2,15.0013128 2.97726918,13.230879 4.48003329,12.140473 Z M6.27305506,11.2522503 C6.80036229,11.0940411 7.35819301,11.006413 7.93557447,11.0003387 C8.81021692,9.75834055 10.0645064,8.82820464 11.5080844,8.35332599 C10.9717853,7.53812973 10.0487361,7 9,7 C7.34314575,7 6,8.34314575 6,10 C6,10.4469866 6.09775601,10.871141 6.27305506,11.2522503 Z M4.75735931,4.34314575 C5.1478836,4.73367004 5.1478836,5.36683502 4.75735931,5.75735931 C4.36683502,6.1478836 3.73367004,6.1478836 3.34314575,5.75735931 L2.63603897,5.05025253 C2.24551468,4.65972824 2.24551468,4.02656326 2.63603897,3.63603897 C3.02656326,3.24551468 3.65972824,3.24551468 4.05025253,3.63603897 L4.75735931,4.34314575 Z M14.6568542,5.75735931 C14.26633,6.1478836 13.633165,6.1478836 13.2426407,5.75735931 C12.8521164,5.36683502 12.8521164,4.73367004 13.2426407,4.34314575 L13.9497475,3.63603897 C14.3402718,3.24551468 14.9734367,3.24551468 15.363961,3.63603897 C15.7544853,4.02656326 15.7544853,4.65972824 15.363961,5.05025253 L14.6568542,5.75735931 Z M1,9 L2,9 C2.55228475,9 3,9.44771525 3,10 C3,10.5522847 2.55228475,11 2,11 L1,11 C0.44771525,11 6.76353751e-17,10.5522847 0,10 C-6.76353751e-17,9.44771525 0.44771525,9 1,9 Z M9,1 C9.55228475,1 10,1.44771525 10,2 L10,3 C10,3.55228475 9.55228475,4 9,4 C8.44771525,4 8,3.55228475 8,3 L8,2 C8,1.44771525 8.44771525,1 9,1 Z M18.9733425,21 C20.6568542,21 22,19.6568542 22,18 C22,16.3431458 20.6568542,15 19,15 C18.9288436,15 18.8582658,15.0024773 18.7883482,15.0073504 C18.7545667,12.2360981 16.4975726,10 13.7183099,10 C11.6037601,10 9.79153294,11.2943969 9.03075439,13.1340645 C8.70189779,13.0466092 8.35639198,13 8,13 C5.790861,13 4,14.790861 4,17 C4,19.209139 5.790861,21 8,21 L18.9733425,21 Z"/>
</svg>
