<svg xmlns="http://www.w3.org/2000/svg" width="24" height="24" viewBox="0 0 24 24">
<path fill="#585858" d="M3.5,10.1C3.2,9.5,3,8.8,3,8c0-2.8,2.2-5,5-5c2.1,0,3.8,1.2,4.6,3c0,0,0.1,0,0.1,0c3.3,0,6,2.2,6.8,5.2
	c2,0.7,3.4,2.5,3.4,4.8c0,2.7-2.1,4.8-4.7,5L7,21c-3.3,0-6-2.7-6-6C1,13,2,11.2,3.5,10.1z M5.3,9.3C5.8,9.1,6.4,9,6.9,9
	c0.9-1.2,2.1-2.2,3.6-2.6C10,5.5,9,5,8,5C6.3,5,5,6.3,5,8C5,8.4,5.1,8.9,5.3,9.3z M18,19c1.7,0,3-1.3,3-3s-1.3-3-3-3
	c-0.1,0-0.1,0-0.2,0c0-2.8-2.3-5-5.1-5C10.6,8,8.8,9.3,8,11.1C7.7,11,7.4,11,7,11c-2.2,0-4,1.8-4,4s1.8,4,4,4H18z"/>
</svg>
