<svg xmlns="http://www.w3.org/2000/svg" width="24" height="24" viewBox="0 0 24 24">
  <path fill="#585858" d="M17.9733425,17 C19.6568542,17 21,15.6568542 21,14 C21,12.3431458 19.6568542,11 18,11 C17.9288436,11 17.8582658,11.0024773 17.7883482,11.0073504 C17.7545667,8.23609813 15.4975726,6 12.7183099,6 C10.6037601,6 8.79153294,7.29439686 8.03075439,9.13406453 C7.70189779,9.0466092 7.35639198,9 7,9 C4.790861,9 3,10.790861 3,13 C3,15.209139 4.790861,17 7,17 L17.9733425,17 Z M12.7183099,4 C15.9895492,4 18.7457556,6.2228711 19.5509033,9.24519075 C21.5531228,9.89783439 23,11.7799491 23,14 C23,16.6622937 20.9192605,18.8386046 18.2952894,18.991425 L7,19 C3.6862915,19 1,16.3137085 1,13 C1,9.70779328 3.65154333,7.03488769 6.93557447,7.00033875 C8.2340427,5.15650507 10.3692337,4 12.7183099,4 Z" transform="translate(-1)"/>
</svg>
