<svg xmlns="http://www.w3.org/2000/svg" width="24" height="24" viewBox="0 0 24 24">
<g fill="#585858">
	<path d="M15.7,17.9c1.6,0,2.8-1.2,2.8-2.8s-1.2-2.8-2.8-2.8c-0.1,0-0.1,0-0.2,0c0-2.6-2.1-4.6-4.7-4.6c-2,0-3.6,1.2-4.3,2.9
		c-0.3-0.1-0.6-0.1-1-0.1c-2,0-3.7,1.7-3.7,3.7s1.7,3.7,3.7,3.7H15.7z M10.9,5.8c3,0,5.6,2.1,6.3,4.9c1.9,0.6,3.2,2.3,3.2,4.4
		c0,2.5-1.9,4.5-4.4,4.6H5.5c-3.1,0-5.6-2.5-5.6-5.6s2.5-5.5,5.5-5.6C6.7,6.9,8.7,5.8,10.9,5.8z"/>
	<path d="M21.2,8.5c-0.6-2.4-2.9-4.2-5.5-4.2c-1.5,0-3,0.6-4,1.7c0.7,0,1.3,0.2,1.9,0.5c0.6-0.4,1.4-0.6,2.1-0.6c2.2,0,4,1.8,4.1,4
		c0.1,0,0.1,0,0.2,0c1.3,0,2.4,1.1,2.4,2.4c0,1.2-0.9,2.2-2,2.4c0,0.2,0,0.3,0,0.5c0,0.4-0.1,0.8-0.2,1.2l0,0c2.1-0.1,3.8-1.9,3.8-4
		C24,10.5,22.8,9,21.2,8.5z"/>
</g>
</svg>
