<svg xmlns="http://www.w3.org/2000/svg" width="24" height="24" viewBox="0 0 24 24">
  <path fill="#585858" d="M17.9733425,15 C19.6568542,15 21,13.6568542 21,12 C21,10.3431458 19.6568542,9 18,9 C17.9288436,9 17.8582658,9.00247732 17.7883482,9.00735042 C17.7545667,6.23609813 15.4975726,4 12.7183099,4 C10.6037601,4 8.79153294,5.29439686 8.03075439,7.13406453 C7.70189779,7.0466092 7.35639198,7 7,7 C4.790861,7 3,8.790861 3,11 C3,13.209139 4.790861,15 7,15 L17.9733425,15 Z M12.7183099,2 C15.9895492,2 18.7457556,4.2228711 19.5509033,7.24519075 C21.5531228,7.89783439 23,9.77994906 23,12 C23,14.6622937 20.9192605,16.8386046 18.2952894,16.991425 L7,17 C3.6862915,17 1,14.3137085 1,11 C1,7.70779328 3.65154333,5.03488769 6.93557447,5.00033875 C8.2340427,3.15650507 10.3692337,2 12.7183099,2 Z M7,20 C6.44771525,20 6,19.5522847 6,19 C6,18.4477153 6.44771525,18 7,18 C7.55228475,18 8,18.4477153 8,19 C8,19.5522847 7.55228475,20 7,20 Z M10,20 C9.44771525,20 9,19.5522847 9,19 C9,18.4477153 9.44771525,18 10,18 C10.5522847,18 11,18.4477153 11,19 C11,19.5522847 10.5522847,20 10,20 Z M8,23 C7.44771525,23 7,22.5522847 7,22 C7,21.4477153 7.44771525,21 8,21 C8.55228475,21 9,21.4477153 9,22 C9,22.5522847 8.55228475,23 8,23 Z M11,23 C10.4477153,23 10,22.5522847 10,22 C10,21.4477153 10.4477153,21 11,21 C11.5522847,21 12,21.4477153 12,22 C12,22.5522847 11.5522847,23 11,23 Z M14,23 C13.4477153,23 13,22.5522847 13,22 C13,21.4477153 13.4477153,21 14,21 C14.5522847,21 15,21.4477153 15,22 C15,22.5522847 14.5522847,23 14,23 Z M13,20 C12.4477153,20 12,19.5522847 12,19 C12,18.4477153 12.4477153,18 13,18 C13.5522847,18 14,18.4477153 14,19 C14,19.5522847 13.5522847,20 13,20 Z M17,23 C16.4477153,23 16,22.5522847 16,22 C16,21.4477153 16.4477153,21 17,21 C17.5522847,21 18,21.4477153 18,22 C18,22.5522847 17.5522847,23 17,23 Z M16,20 C15.4477153,20 15,19.5522847 15,19 C15,18.4477153 15.4477153,18 16,18 C16.5522847,18 17,18.4477153 17,19 C17,19.5522847 16.5522847,20 16,20 Z"/>
</svg>
