<svg xmlns="http://www.w3.org/2000/svg" width="24" height="24" viewBox="0 0 24 24">
  <path fill="#585858" d="M17.9733425,15 C19.6568542,15 21,13.6568542 21,12 C21,10.3431458 19.6568542,9 18,9 C17.9288436,9 17.8582658,9.00247732 17.7883482,9.00735042 C17.7545667,6.23609813 15.4975726,4 12.7183099,4 C10.6037601,4 8.79153294,5.29439686 8.03075439,7.13406453 C7.70189779,7.0466092 7.35639198,7 7,7 C4.790861,7 3,8.790861 3,11 C3,13.209139 4.790861,15 7,15 L17.9733425,15 Z M12.7183099,2 C15.9895492,2 18.7457556,4.2228711 19.5509033,7.24519075 C21.5531228,7.89783439 23,9.77994906 23,12 C23,14.6622937 20.9192605,16.8386046 18.2952894,16.991425 L7,17 C3.6862915,17 1,14.3137085 1,11 C1,7.70779328 3.65154333,5.03488769 6.93557447,5.00033875 C8.2340427,3.15650507 10.3692337,2 12.7183099,2 Z M12.5176381,18.0681483 C13.0511042,18.2110902 13.3676867,18.7594271 13.2247449,19.2928932 L12.7071068,21.2247449 C12.564165,21.758211 12.015828,22.0747935 11.4823619,21.9318517 C10.9488958,21.7889098 10.6323133,21.2405729 10.7752551,20.7071068 L11.2928932,18.7752551 C11.435835,18.241789 11.984172,17.9252065 12.5176381,18.0681483 Z"/>
</svg>
