<svg xmlns="http://www.w3.org/2000/svg" width="24" height="24" viewBox="0 0 24 24">
  <path fill="#585858" d="M17.9733425,14 C19.6568542,14 21,12.6568542 21,11 C21,9.34314575 19.6568542,8 18,8 C17.9288436,8 17.8582658,8.00247732 17.7883482,8.00735042 C17.7545667,5.23609813 15.4975726,3 12.7183099,3 C10.6037601,3 8.79153294,4.29439686 8.03075439,6.13406453 C7.70189779,6.0466092 7.35639198,6 7,6 C4.790861,6 3,7.790861 3,10 C3,12.209139 4.790861,14 7,14 L17.9733425,14 Z M12.618034,18 L14,18 C14.8240453,18 15.2944272,18.9407637 14.8,19.6 L11.8,23.6 C11.4686292,24.0418278 10.8418278,24.1313708 10.4,23.8 C9.9581722,23.4686292 9.86862915,22.8418278 10.2,22.4 L12,20 L11,20 C10.256618,20 9.77312226,19.2176875 10.1055728,18.5527864 L11.38363,15.9966721 L7,16 C3.6862915,16 1,13.3137085 1,10 C1,6.70779328 3.65154333,4.03488769 6.93557447,4.00033875 C8.2340427,2.15650507 10.3692337,1 12.7183099,1 C15.9895492,1 18.7457556,3.2228711 19.5509033,6.24519075 C21.5531228,6.89783439 23,8.77994906 23,11 C23,13.6622937 20.9192605,15.8386046 18.2952894,15.991425 L13.620547,15.9949739 L12.618034,18 Z"/>
</svg>
