<svg xmlns="http://www.w3.org/2000/svg" width="24" height="24" viewBox="0 0 24 24">
  <path fill="#585858" d="M4.3866262,6.44971605 L4.27483187,4.7162831 C4.23928721,4.16514336 4.6572596,3.68954167 5.20839935,3.653997 C5.7595391,3.61845233 6.23514079,4.03642473 6.27068545,4.58756447 L6.4682922,7.65156648 L11,10.2679492 L11,5.03518376 L8.4452998,3.33205029 C7.98577112,3.02569784 7.86159725,2.40482849 8.16794971,1.9452998 C8.47430216,1.48577112 9.09517151,1.36159725 9.5547002,1.66794971 L11,2.63148291 L11,1 C11,-0.333333333 13,-0.333333333 13,1 L13,2.63148291 L14.4452998,1.66794971 C14.9048285,1.36159725 15.5256978,1.48577112 15.8320503,1.9452998 C16.1384028,2.40482849 16.0142289,3.02569784 15.5547002,3.33205029 L13,5.03518376 L13,10.2679492 L17.5317078,7.65156648 L17.7293145,4.58756447 C17.7648592,4.03642473 18.2404609,3.61845233 18.7916007,3.653997 C19.3427404,3.68954167 19.7607128,4.16514336 19.7251681,4.7162831 L19.6133738,6.44971605 L21.0262794,5.6339746 C22.18098,4.96730793 23.18098,6.69935874 22.0262794,7.3660254 L20.6133738,8.18176686 L22.1704679,8.9516666 C22.6655413,9.19645389 22.8684382,9.79622945 22.6236509,10.2913028 C22.3788637,10.7863762 21.7790881,10.9892731 21.2840147,10.7444858 L18.5317078,9.38361728 L14,12 L18.5317078,14.6163827 L21.2840147,13.2555142 C21.7790881,13.0107269 22.3788637,13.2136238 22.6236509,13.7086972 C22.8684382,14.2037706 22.6655413,14.8035461 22.1704679,15.0483334 L20.6133738,15.8182331 L22.0262794,16.6339746 C23.18098,17.3006413 22.18098,19.0326921 21.0262794,18.3660254 L19.6133738,17.5502839 L19.7251681,19.2837169 C19.7607128,19.8348566 19.3427404,20.3104583 18.7916007,20.346003 C18.2404609,20.3815477 17.7648592,19.9635753 17.7293145,19.4124355 L17.5317078,16.3484335 L13,13.7320508 L13,18.9648162 L15.5547002,20.6679497 C16.0142289,20.9743022 16.1384028,21.5951715 15.8320503,22.0547002 C15.5256978,22.5142289 14.9048285,22.6384028 14.4452998,22.3320503 L13,21.3685171 L13,23 C13,24.3333333 11,24.3333333 11,23 L11,21.3685171 L9.5547002,22.3320503 C9.09517151,22.6384028 8.47430216,22.5142289 8.16794971,22.0547002 C7.86159725,21.5951715 7.98577112,20.9743022 8.4452998,20.6679497 L11,18.9648162 L11,13.7320508 L6.4682922,16.3484335 L6.27068545,19.4124355 C6.23514079,19.9635753 5.7595391,20.3815477 5.20839935,20.346003 C4.6572596,20.3104583 4.23928721,19.8348566 4.27483187,19.2837169 L4.3866262,17.5502839 L2.97372056,18.3660254 C1.81902002,19.0326921 0.81902002,17.3006413 1.97372056,16.6339746 L3.3866262,15.8182331 L1.82953207,15.0483334 C1.33445871,14.8035461 1.13156177,14.2037706 1.37634906,13.7086972 C1.62113634,13.2136238 2.2209119,13.0107269 2.71598526,13.2555142 L5.4682922,14.6163827 L10,12 L5.4682922,9.38361728 L2.71598526,10.7444858 C2.2209119,10.9892731 1.62113634,10.7863762 1.37634906,10.2913028 C1.13156177,9.79622945 1.33445871,9.19645389 1.82953207,8.9516666 L3.3866262,8.18176686 L1.97372056,7.3660254 C0.81902002,6.69935874 1.81902002,4.96730793 2.97372056,5.6339746 L4.3866262,6.44971605 Z"/>
</svg>
