<svg xmlns="http://www.w3.org/2000/svg" width="24" height="24" viewBox="0 0 24 24">
  <path fill="#585858" d="M8,4 C8,1.790861 9.790861,3.33066907e-16 12,0 C14.209139,-4.99600361e-16 16,1.790861 16,4 L16,13.527787 C17.2274987,14.6264281 18,16.2230004 18,18 C18,21.3137085 15.3137085,24 12,24 C8.6862915,24 6,21.3137085 6,18 C6,16.2230004 6.77250128,14.6264281 8,13.527787 L8,4 Z M10,4 L10,14.4218163 L9.33382757,15.0180568 C8.48942144,15.7738207 8,16.8451254 8,18 C8,20.209139 9.790861,22 12,22 C14.209139,22 16,20.209139 16,18 C16,16.8451254 15.5105786,15.7738207 14.6661724,15.0180568 L14,14.4218163 L14,4 C14,2.8954305 13.1045695,2 12,2 C10.8954305,2 10,2.8954305 10,4 Z M15,18 C15,19.6568542 13.6568542,21 12,21 C10.3431458,21 9,19.6568542 9,18 C9,16.6937812 9.83480763,15.5825421 11,15.1707057 L11,11 C11,10.4477153 11.4477153,10 12,10 C12.5522847,10 13,10.4477153 13,11 L13,15.1707057 C14.1651924,15.5825421 15,16.6937812 15,18 Z"/>
</svg>
